<?xml version="1.0" encoding="UTF-8" standalone="no"?>
<!-- Created with matplotlib (https://matplotlib.org/) -->

<svg
   xmlns:dc="http://purl.org/dc/elements/1.1/"
   xmlns:cc="http://creativecommons.org/ns#"
   xmlns:rdf="http://www.w3.org/1999/02/22-rdf-syntax-ns#"
   xmlns:svg="http://www.w3.org/2000/svg"
   xmlns="http://www.w3.org/2000/svg"
   xmlns:xlink="http://www.w3.org/1999/xlink"
   xmlns:sodipodi="http://sodipodi.sourceforge.net/DTD/sodipodi-0.dtd"
   xmlns:inkscape="http://www.inkscape.org/namespaces/inkscape"
   height="400pt"
   version="1.1"
   viewBox="0 0 600 400"
   width="600pt"
   id="svg288"
   sodipodi:docname="pathmodel_output.svg"
   inkscape:version="0.92.4 (unknown)">
  <metadata
     id="metadata292">
    <rdf:RDF>
      <cc:Work
         rdf:about="">
        <dc:format>image/svg+xml</dc:format>
        <dc:type
           rdf:resource="http://purl.org/dc/dcmitype/StillImage" />
        <dc:title></dc:title>
      </cc:Work>
    </rdf:RDF>
  </metadata>
  <sodipodi:namedview
     pagecolor="#ffffff"
     bordercolor="#666666"
     borderopacity="1"
     objecttolerance="10"
     gridtolerance="10"
     guidetolerance="10"
     inkscape:pageopacity="0"
     inkscape:pageshadow="2"
     inkscape:window-width="1920"
     inkscape:window-height="1163"
     id="namedview290"
     showgrid="false"
     inkscape:zoom="0.5475"
     inkscape:cx="641.6635"
     inkscape:cy="654.95199"
     inkscape:window-x="0"
     inkscape:window-y="0"
     inkscape:window-maximized="1"
     inkscape:current-layer="axes_1" />
  <defs
     id="defs4"
     style="stroke-linecap:butt;stroke-linejoin:round">
    <style
       type="text/css"
       id="style2">
*{stroke-linecap:butt;stroke-linejoin:round;}
  </style>
    <defs
       id="defs35">
      <path
         style="stroke:#008000;stroke-linecap:butt;stroke-linejoin:round;stroke-opacity:0.2"
         id="m3e6f66a070"
         d="M -27.386128,27.386128 H 27.386128 V -27.386128 H -27.386128 Z"
         inkscape:connector-curvature="0" />
    </defs>
    <defs
       id="defs53">
      <path
         style="stroke:#0000ff;stroke-linecap:butt;stroke-linejoin:round;stroke-opacity:0.2"
         id="m8081ddaff4"
         d="M -22.36068,22.36068 H 22.36068 V -22.36068 H -22.36068 Z"
         inkscape:connector-curvature="0" />
    </defs>
  </defs>
  <g
     id="figure_1"
     style="stroke-linecap:butt;stroke-linejoin:round"
     transform="translate(0,-1400)">
    <g
       id="axes_1"
       style="stroke-linecap:butt;stroke-linejoin:round">
      <g
         id="patch_2"
         transform="translate(-813.69863,39.726027)"
         style="stroke-linecap:butt;stroke-linejoin:round">
        <path
           clip-path="url(#p615c64d30a)"
           d="m 956.08021,1402.4088 q 167.13539,38.6828 332.09229,76.8614"
           style="fill:none;stroke:#008000;stroke-width:2;stroke-linecap:round;stroke-linejoin:round;stroke-opacity:0.5"
           id="path9"
           inkscape:connector-curvature="0" />
        <path
           clip-path="url(#p615c64d30a)"
           d="m 1283.3481,1475.2796 4.8244,3.9906 -6.0871,1.4652"
           style="fill:none;stroke:#008000;stroke-width:2;stroke-linecap:round;stroke-linejoin:round;stroke-opacity:0.5"
           id="path11"
           inkscape:connector-curvature="0" />
      </g>
      <g
         id="patch_3"
         transform="translate(-291.78082,836.9863)"
         style="stroke-linecap:butt;stroke-linejoin:round">
        <path
           clip-path="url(#p615c64d30a)"
           d="m 346.05372,820.87664 q 167.12365,38.68646 332.06884,76.86865"
           style="fill:none;stroke:#008000;stroke-width:2;stroke-linecap:round;stroke-linejoin:round;stroke-opacity:0.5"
           id="path14"
           inkscape:connector-curvature="0" />
        <path
           clip-path="url(#p615c64d30a)"
           d="m 673.29828,893.7545 4.82428,3.99079 -6.0872,1.46495"
           style="fill:none;stroke:#008000;stroke-width:2;stroke-linecap:round;stroke-linejoin:round;stroke-opacity:0.5"
           id="path16"
           inkscape:connector-curvature="0" />
      </g>
      <g
         id="patch_4"
         transform="translate(-1053.4247,1216.4383)"
         style="stroke-linecap:butt;stroke-linejoin:round">
        <path
           clip-path="url(#p615c64d30a)"
           d="m 1156.2861,336.27273 q 167.112,38.68646 332.0454,76.86861"
           style="fill:none;stroke:#008000;stroke-width:2;stroke-linecap:round;stroke-linejoin:round;stroke-opacity:0.5"
           id="path19"
           inkscape:connector-curvature="0" />
        <path
           clip-path="url(#p615c64d30a)"
           d="m 1483.5073,409.15048 4.8242,3.99086 -6.0872,1.46486"
           style="fill:none;stroke:#008000;stroke-width:2;stroke-linecap:round;stroke-linejoin:round;stroke-opacity:0.5"
           id="path21"
           inkscape:connector-curvature="0" />
      </g>
      <g
         id="patch_5"
         transform="translate(-291.78082,836.9863)"
         style="stroke-linecap:butt;stroke-linejoin:round">
        <path
           clip-path="url(#p615c64d30a)"
           d="m 346.05372,820.87664 q 167.12365,38.68646 332.06884,76.86865"
           style="fill:none;stroke:#0000ff;stroke-width:2;stroke-linecap:round;stroke-linejoin:round;stroke-opacity:0.5"
           id="path24"
           inkscape:connector-curvature="0" />
        <path
           clip-path="url(#p615c64d30a)"
           d="m 673.29828,893.7545 4.82428,3.99079 -6.0872,1.46495"
           style="fill:none;stroke:#0000ff;stroke-width:2;stroke-linecap:round;stroke-linejoin:round;stroke-opacity:0.5"
           id="path26"
           inkscape:connector-curvature="0" />
      </g>
      <g
         id="patch_6"
         transform="translate(-1053.4247,1216.4383)"
         style="stroke-linecap:butt;stroke-linejoin:round">
        <path
           clip-path="url(#p615c64d30a)"
           d="m 1156.2861,336.27273 q 167.112,38.68646 332.0454,76.86861"
           style="fill:none;stroke:#0000ff;stroke-width:2;stroke-linecap:round;stroke-linejoin:round;stroke-opacity:0.5"
           id="path29"
           inkscape:connector-curvature="0" />
        <path
           clip-path="url(#p615c64d30a)"
           d="m 1483.5073,409.15048 4.8242,3.99086 -6.0872,1.46486"
           style="fill:none;stroke:#0000ff;stroke-width:2;stroke-linecap:round;stroke-linejoin:round;stroke-opacity:0.5"
           id="path31"
           inkscape:connector-curvature="0" />
      </g>
      <use
         style="fill:#008000;fill-opacity:0.2;stroke:#008000;stroke-linecap:butt;stroke-linejoin:round;stroke-opacity:0.2"
         x="956.0802"
         xlink:href="#m3e6f66a070"
         y="1402.4088"
         id="use37"
         width="100%"
         height="100%"
         transform="translate(-813.69863,39.726027)" />
      <use
         style="fill:#008000;fill-opacity:0.2;stroke:#008000;stroke-linecap:butt;stroke-linejoin:round;stroke-opacity:0.2"
         x="1298.7885"
         xlink:href="#m3e6f66a070"
         y="1481.7273"
         id="use39"
         width="100%"
         height="100%"
         transform="translate(-813.69863,39.726027)" />
      <use
         style="fill:#008000;fill-opacity:0.2;stroke:#008000;stroke-linecap:butt;stroke-linejoin:round;stroke-opacity:0.2"
         x="346.05371"
         xlink:href="#m3e6f66a070"
         y="820.87665"
         id="use41"
         width="100%"
         height="100%"
         transform="translate(-291.78082,836.9863)" />
      <use
         style="fill:#008000;fill-opacity:0.2;stroke:#008000;stroke-linecap:butt;stroke-linejoin:round;stroke-opacity:0.2"
         x="688.73792"
         xlink:href="#m3e6f66a070"
         y="900.20258"
         id="use43"
         width="100%"
         height="100%"
         transform="translate(-291.78082,836.9863)" />
      <use
         style="fill:#008000;fill-opacity:0.2;stroke:#008000;stroke-linecap:butt;stroke-linejoin:round;stroke-opacity:0.2"
         x="1156.2861"
         xlink:href="#m3e6f66a070"
         y="336.27274"
         id="use45"
         width="100%"
         height="100%"
         transform="translate(-1053.4247,1216.4383)" />
      <use
         style="fill:#008000;fill-opacity:0.2;stroke:#008000;stroke-linecap:butt;stroke-linejoin:round;stroke-opacity:0.2"
         x="1498.9463"
         xlink:href="#m3e6f66a070"
         y="415.59866"
         id="use47"
         width="100%"
         height="100%"
         transform="translate(-1053.4247,1216.4383)" />
      <use
         style="fill:#0000ff;fill-opacity:0.2;stroke:#0000ff;stroke-linecap:butt;stroke-linejoin:round;stroke-opacity:0.2"
         x="346.05371"
         xlink:href="#m8081ddaff4"
         y="820.87665"
         id="use55"
         width="100%"
         height="100%"
         transform="translate(-291.78082,836.9863)" />
      <use
         style="fill:#0000ff;fill-opacity:0.2;stroke:#0000ff;stroke-linecap:butt;stroke-linejoin:round;stroke-opacity:0.2"
         x="688.73792"
         xlink:href="#m8081ddaff4"
         y="900.20258"
         id="use57"
         width="100%"
         height="100%"
         transform="translate(-291.78082,836.9863)" />
      <use
         style="fill:#0000ff;fill-opacity:0.2;stroke:#0000ff;stroke-linecap:butt;stroke-linejoin:round;stroke-opacity:0.2"
         x="1156.2861"
         xlink:href="#m8081ddaff4"
         y="336.27274"
         id="use59"
         width="100%"
         height="100%"
         transform="translate(-1053.4247,1216.4383)" />
      <use
         style="fill:#0000ff;fill-opacity:0.2;stroke:#0000ff;stroke-linecap:butt;stroke-linejoin:round;stroke-opacity:0.2"
         x="1498.9463"
         xlink:href="#m8081ddaff4"
         y="415.59866"
         id="use61"
         width="100%"
         height="100%"
         transform="translate(-1053.4247,1216.4383)" />
      <g
         id="text_1"
         transform="translate(-813.69863,39.726027)"
         style="stroke-linecap:butt;stroke-linejoin:round">
        <g
           clip-path="url(#p615c64d30a)"
           id="g98"
           style="stroke-linecap:butt;stroke-linejoin:round">
          <!-- molecule_1 -->
          <defs
             id="defs74">
            <path
               d="M 52,44.1875 Q 55.375,50.25 60.0625,53.125 64.75,56 71.09375,56 q 8.546875,0 13.1875,-5.984375 4.640625,-5.96875 4.640625,-17 V 0 h -9.03125 v 32.71875 q 0,7.859375 -2.796875,11.65625 -2.78125,3.8125 -8.484375,3.8125 -6.984375,0 -11.046875,-4.640625 -4.046875,-4.625 -4.046875,-12.640625 V 0 h -9.03125 v 32.71875 q 0,7.90625 -2.78125,11.6875 -2.78125,3.78125 -8.59375,3.78125 -6.890625,0 -10.953125,-4.65625 -4.046875,-4.65625 -4.046875,-12.625 V 0 h -9.03125 v 54.6875 h 9.03125 v -8.5 q 3.078125,5.03125 7.375,7.421875 Q 29.78125,56 35.6875,56 41.65625,56 45.828125,52.96875 50,49.953125 52,44.1875 Z"
               id="DejaVuSans-109"
               inkscape:connector-curvature="0"
               style="stroke-linecap:butt;stroke-linejoin:round" />
            <path
               d="m 30.609375,48.390625 q -7.21875,0 -11.421875,-5.640625 -4.203125,-5.640625 -4.203125,-15.453125 0,-9.8125 4.171875,-15.453125 4.1875,-5.640625 11.453125,-5.640625 7.1875,0 11.375,5.65625 4.203125,5.671875 4.203125,15.4375 0,9.71875 -4.203125,15.40625 -4.1875,5.6875 -11.375,5.6875 z m 0,7.609375 q 11.71875,0 18.40625,-7.625 6.703125,-7.609375 6.703125,-21.078125 0,-13.421875 -6.703125,-21.078125 -6.6875,-7.640625 -18.40625,-7.640625 -11.765625,0 -18.4375,7.640625 -6.65625,7.65625 -6.65625,21.078125 0,13.46875 6.65625,21.078125 Q 18.84375,56 30.609375,56 Z"
               id="DejaVuSans-111"
               inkscape:connector-curvature="0"
               style="stroke-linecap:butt;stroke-linejoin:round" />
            <path
               d="M 9.421875,75.984375 H 18.40625 V 0 H 9.421875 Z"
               id="DejaVuSans-108"
               inkscape:connector-curvature="0"
               style="stroke-linecap:butt;stroke-linejoin:round" />
            <path
               d="m 56.203125,29.59375 v -4.390625 h -41.3125 q 0.59375,-9.28125 5.59375,-14.140625 5,-4.859375 13.9375,-4.859375 5.171875,0 10.03125,1.265625 4.859375,1.265625 9.65625,3.8125 v -8.5 q -4.84375,-2.046875 -9.921875,-3.125 -5.078125,-1.078125 -10.296875,-1.078125 -13.09375,0 -20.734375,7.609375 -7.640625,7.625 -7.640625,20.625 0,13.421875 7.25,21.296875 Q 20.015625,56 32.328125,56 q 11.03125,0 17.453125,-7.109375 6.421875,-7.09375 6.421875,-19.296875 z m -8.984375,2.640625 q -0.09375,7.359375 -4.125,11.75 -4.03125,4.40625 -10.671875,4.40625 -7.515625,0 -12.03125,-4.25 -4.515625,-4.25 -5.203125,-11.96875 z"
               id="DejaVuSans-101"
               inkscape:connector-curvature="0"
               style="stroke-linecap:butt;stroke-linejoin:round" />
            <path
               d="M 48.78125,52.59375 V 44.1875 q -3.8125,2.109375 -7.640625,3.15625 -3.828125,1.046875 -7.734375,1.046875 -8.75,0 -13.59375,-5.546875 -4.828125,-5.53125 -4.828125,-15.546875 0,-10.015625 4.828125,-15.5625 4.84375,-5.53125 13.59375,-5.53125 3.90625,0 7.734375,1.046875 3.828125,1.046875 7.640625,3.15625 v -8.3125 q -3.765625,-1.75 -7.796875,-2.625 -4.015625,-0.890625 -8.5625,-0.890625 -12.359375,0 -19.640625,7.765625 -7.265625,7.765625 -7.265625,20.953125 0,13.375 7.34375,21.03125 Q 20.21875,56 33.015625,56 q 4.140625,0 8.09375,-0.859375 3.953125,-0.84375 7.671875,-2.546875 z"
               id="DejaVuSans-99"
               inkscape:connector-curvature="0"
               style="stroke-linecap:butt;stroke-linejoin:round" />
            <path
               d="M 8.5,21.578125 V 54.6875 h 8.984375 V 21.921875 q 0,-7.765625 3.015625,-11.65625 3.03125,-3.875 9.09375,-3.875 7.265625,0 11.484375,4.640625 4.234375,4.640625 4.234375,12.65625 v 31 h 8.984375 V 0 H 45.3125 V 8.40625 Q 42.046875,3.421875 37.71875,1 33.40625,-1.421875 27.6875,-1.421875 18.265625,-1.421875 13.375,4.4375 8.5,10.296875 8.5,21.578125 Z M 31.109375,56 Z"
               id="DejaVuSans-117"
               inkscape:connector-curvature="0"
               style="stroke-linecap:butt;stroke-linejoin:round" />
            <path
               d="m 50.984375,-16.609375 v -6.96875 h -51.96875 v 6.96875 z"
               id="DejaVuSans-95"
               inkscape:connector-curvature="0"
               style="stroke-linecap:butt;stroke-linejoin:round" />
            <path
               d="m 12.40625,8.296875 h 16.109375 v 55.625 L 10.984375,60.40625 v 8.984375 l 17.4375,3.515625 H 38.28125 V 8.296875 H 54.390625 V 0 H 12.40625 Z"
               id="DejaVuSans-49"
               inkscape:connector-curvature="0"
               style="stroke-linecap:butt;stroke-linejoin:round" />
          </defs>
          <g
             transform="matrix(0.15,0,0,-0.15,913.38998,1406.3393)"
             id="g96"
             style="stroke-linecap:butt;stroke-linejoin:round">
            <use
               xlink:href="#DejaVuSans-109"
               id="use76"
               style="stroke-linecap:butt;stroke-linejoin:round"
               x="0"
               y="0"
               width="100%"
               height="100%" />
            <use
               x="97.412109"
               xlink:href="#DejaVuSans-111"
               id="use78"
               style="stroke-linecap:butt;stroke-linejoin:round"
               y="0"
               width="100%"
               height="100%" />
            <use
               x="158.59375"
               xlink:href="#DejaVuSans-108"
               id="use80"
               style="stroke-linecap:butt;stroke-linejoin:round"
               y="0"
               width="100%"
               height="100%" />
            <use
               x="186.37695"
               xlink:href="#DejaVuSans-101"
               id="use82"
               style="stroke-linecap:butt;stroke-linejoin:round"
               y="0"
               width="100%"
               height="100%" />
            <use
               x="247.90039"
               xlink:href="#DejaVuSans-99"
               id="use84"
               style="stroke-linecap:butt;stroke-linejoin:round"
               y="0"
               width="100%"
               height="100%" />
            <use
               x="302.88086"
               xlink:href="#DejaVuSans-117"
               id="use86"
               style="stroke-linecap:butt;stroke-linejoin:round"
               y="0"
               width="100%"
               height="100%" />
            <use
               x="366.25977"
               xlink:href="#DejaVuSans-108"
               id="use88"
               style="stroke-linecap:butt;stroke-linejoin:round"
               y="0"
               width="100%"
               height="100%" />
            <use
               x="394.04297"
               xlink:href="#DejaVuSans-101"
               id="use90"
               style="stroke-linecap:butt;stroke-linejoin:round"
               y="0"
               width="100%"
               height="100%" />
            <use
               x="455.56641"
               xlink:href="#DejaVuSans-95"
               id="use92"
               style="stroke-linecap:butt;stroke-linejoin:round"
               y="0"
               width="100%"
               height="100%" />
            <use
               x="505.56641"
               xlink:href="#DejaVuSans-49"
               id="use94"
               style="stroke-linecap:butt;stroke-linejoin:round"
               y="0"
               width="100%"
               height="100%" />
          </g>
        </g>
      </g>
      <g
         id="text_2"
         transform="translate(-813.69863,39.726027)"
         style="stroke-linecap:butt;stroke-linejoin:round">
        <g
           clip-path="url(#p615c64d30a)"
           id="g126"
           style="stroke-linecap:butt;stroke-linejoin:round">
          <!-- molecule_2 -->
          <defs
             id="defs102">
            <path
               d="M 19.1875,8.296875 H 53.609375 V 0 H 7.328125 v 8.296875 q 5.609375,5.8125 15.296875,15.59375 9.703125,9.796875 12.1875,12.640625 4.734375,5.3125 6.609375,9 1.890625,3.6875 1.890625,7.25 0,5.8125 -4.078125,9.46875 -4.078125,3.671875 -10.625,3.671875 -4.640625,0 -9.796875,-1.609375 -5.140625,-1.609375 -11,-4.890625 v 9.96875 Q 13.765625,71.78125 18.9375,73 q 5.1875,1.21875 9.484375,1.21875 11.328125,0 18.0625,-5.671875 6.734375,-5.65625 6.734375,-15.125 0,-4.5 -1.6875,-8.53125 Q 49.859375,40.875 45.40625,35.40625 44.1875,33.984375 37.640625,27.21875 31.109375,20.453125 19.1875,8.296875 Z"
               id="DejaVuSans-50"
               inkscape:connector-curvature="0"
               style="stroke-linecap:butt;stroke-linejoin:round" />
          </defs>
          <g
             transform="matrix(0.15,0,0,-0.15,1256.0982,1485.6577)"
             id="g124"
             style="stroke-linecap:butt;stroke-linejoin:round">
            <use
               xlink:href="#DejaVuSans-109"
               id="use104"
               style="stroke-linecap:butt;stroke-linejoin:round"
               x="0"
               y="0"
               width="100%"
               height="100%" />
            <use
               x="97.412109"
               xlink:href="#DejaVuSans-111"
               id="use106"
               style="stroke-linecap:butt;stroke-linejoin:round"
               y="0"
               width="100%"
               height="100%" />
            <use
               x="158.59375"
               xlink:href="#DejaVuSans-108"
               id="use108"
               style="stroke-linecap:butt;stroke-linejoin:round"
               y="0"
               width="100%"
               height="100%" />
            <use
               x="186.37695"
               xlink:href="#DejaVuSans-101"
               id="use110"
               style="stroke-linecap:butt;stroke-linejoin:round"
               y="0"
               width="100%"
               height="100%" />
            <use
               x="247.90039"
               xlink:href="#DejaVuSans-99"
               id="use112"
               style="stroke-linecap:butt;stroke-linejoin:round"
               y="0"
               width="100%"
               height="100%" />
            <use
               x="302.88086"
               xlink:href="#DejaVuSans-117"
               id="use114"
               style="stroke-linecap:butt;stroke-linejoin:round"
               y="0"
               width="100%"
               height="100%" />
            <use
               x="366.25977"
               xlink:href="#DejaVuSans-108"
               id="use116"
               style="stroke-linecap:butt;stroke-linejoin:round"
               y="0"
               width="100%"
               height="100%" />
            <use
               x="394.04297"
               xlink:href="#DejaVuSans-101"
               id="use118"
               style="stroke-linecap:butt;stroke-linejoin:round"
               y="0"
               width="100%"
               height="100%" />
            <use
               x="455.56641"
               xlink:href="#DejaVuSans-95"
               id="use120"
               style="stroke-linecap:butt;stroke-linejoin:round"
               y="0"
               width="100%"
               height="100%" />
            <use
               x="505.56641"
               xlink:href="#DejaVuSans-50"
               id="use122"
               style="stroke-linecap:butt;stroke-linejoin:round"
               y="0"
               width="100%"
               height="100%" />
          </g>
        </g>
      </g>
      <g
         id="text_3"
         transform="translate(-291.78082,836.9863)"
         style="stroke-linecap:butt;stroke-linejoin:round">
        <g
           clip-path="url(#p615c64d30a)"
           id="g154"
           style="stroke-linecap:butt;stroke-linejoin:round">
          <!-- molecule_5 -->
          <defs
             id="defs130">
            <path
               d="m 10.796875,72.90625 h 38.71875 v -8.3125 h -29.6875 V 46.734375 q 2.140625,0.734375 4.28125,1.09375 2.15625,0.359375 4.3125,0.359375 Q 40.625,48.1875 47.75,41.5 54.890625,34.8125 54.890625,23.390625 54.890625,11.625 47.5625,5.09375 40.234375,-1.421875 26.90625,-1.421875 q -4.59375,0 -9.359375,0.78125 -4.75,0.78125 -9.828125,2.34375 V 11.625 q 4.390625,-2.390625 9.078125,-3.5625 4.6875,-1.171875 9.90625,-1.171875 8.453125,0 13.375,4.4375 4.9375,4.4375 4.9375,12.0625 0,7.609375 -4.9375,12.046875 -4.921875,4.453125 -13.375,4.453125 -3.953125,0 -7.890625,-0.875 -3.921875,-0.875 -8.015625,-2.734375 z"
               id="DejaVuSans-53"
               inkscape:connector-curvature="0"
               style="stroke-linecap:butt;stroke-linejoin:round" />
          </defs>
          <g
             transform="matrix(0.15,0,0,-0.15,303.36349,824.80711)"
             id="g152"
             style="stroke-linecap:butt;stroke-linejoin:round">
            <use
               xlink:href="#DejaVuSans-109"
               id="use132"
               style="stroke-linecap:butt;stroke-linejoin:round"
               x="0"
               y="0"
               width="100%"
               height="100%" />
            <use
               x="97.412109"
               xlink:href="#DejaVuSans-111"
               id="use134"
               style="stroke-linecap:butt;stroke-linejoin:round"
               y="0"
               width="100%"
               height="100%" />
            <use
               x="158.59375"
               xlink:href="#DejaVuSans-108"
               id="use136"
               style="stroke-linecap:butt;stroke-linejoin:round"
               y="0"
               width="100%"
               height="100%" />
            <use
               x="186.37695"
               xlink:href="#DejaVuSans-101"
               id="use138"
               style="stroke-linecap:butt;stroke-linejoin:round"
               y="0"
               width="100%"
               height="100%" />
            <use
               x="247.90039"
               xlink:href="#DejaVuSans-99"
               id="use140"
               style="stroke-linecap:butt;stroke-linejoin:round"
               y="0"
               width="100%"
               height="100%" />
            <use
               x="302.88086"
               xlink:href="#DejaVuSans-117"
               id="use142"
               style="stroke-linecap:butt;stroke-linejoin:round"
               y="0"
               width="100%"
               height="100%" />
            <use
               x="366.25977"
               xlink:href="#DejaVuSans-108"
               id="use144"
               style="stroke-linecap:butt;stroke-linejoin:round"
               y="0"
               width="100%"
               height="100%" />
            <use
               x="394.04297"
               xlink:href="#DejaVuSans-101"
               id="use146"
               style="stroke-linecap:butt;stroke-linejoin:round"
               y="0"
               width="100%"
               height="100%" />
            <use
               x="455.56641"
               xlink:href="#DejaVuSans-95"
               id="use148"
               style="stroke-linecap:butt;stroke-linejoin:round"
               y="0"
               width="100%"
               height="100%" />
            <use
               x="505.56641"
               xlink:href="#DejaVuSans-53"
               id="use150"
               style="stroke-linecap:butt;stroke-linejoin:round"
               y="0"
               width="100%"
               height="100%" />
          </g>
        </g>
      </g>
      <g
         id="text_4"
         transform="translate(-291.78082,836.9863)"
         style="stroke-linecap:butt;stroke-linejoin:round">
        <g
           clip-path="url(#p615c64d30a)"
           id="g228"
           style="stroke-linecap:butt;stroke-linejoin:round">
          <!-- Prediction_921341_saturation -->
          <defs
             id="defs168">
            <path
               d="M 19.671875,64.796875 V 37.40625 h 12.40625 q 6.890625,0 10.640625,3.5625 3.765625,3.5625 3.765625,10.15625 0,6.546875 -3.765625,10.109375 -3.75,3.5625 -10.640625,3.5625 z M 9.8125,72.90625 h 22.265625 q 12.265625,0 18.53125,-5.546875 6.28125,-5.546875 6.28125,-16.234375 0,-10.796875 -6.28125,-16.3125 -6.265625,-5.515625 -18.53125,-5.515625 H 19.671875 V 0 H 9.8125 Z"
               id="DejaVuSans-80"
               inkscape:connector-curvature="0"
               style="stroke-linecap:butt;stroke-linejoin:round" />
            <path
               d="m 41.109375,46.296875 q -1.515625,0.875 -3.296875,1.28125 Q 36.03125,48 33.890625,48 26.265625,48 22.1875,43.046875 18.109375,38.09375 18.109375,28.8125 V 0 h -9.03125 v 54.6875 h 9.03125 v -8.5 q 2.84375,4.984375 7.375,7.390625 Q 30.03125,56 36.53125,56 q 0.921875,0 2.046875,-0.125 1.125,-0.109375 2.484375,-0.359375 z"
               id="DejaVuSans-114"
               inkscape:connector-curvature="0"
               style="stroke-linecap:butt;stroke-linejoin:round" />
            <path
               d="m 45.40625,46.390625 v 29.59375 h 8.984375 V 0 H 45.40625 v 8.203125 q -2.828125,-4.875 -7.15625,-7.25 -4.3125,-2.375 -10.375,-2.375 -9.90625,0 -16.140625,7.90625 -6.21875,7.921875 -6.21875,20.8125 0,12.890625 6.21875,20.796875 Q 17.96875,56 27.875,56 q 6.0625,0 10.375,-2.375 4.328125,-2.359375 7.15625,-7.234375 z M 14.796875,27.296875 q 0,-9.90625 4.078125,-15.546875 4.078125,-5.640625 11.203125,-5.640625 7.125,0 11.21875,5.640625 4.109375,5.640625 4.109375,15.546875 0,9.90625 -4.109375,15.546875 -4.09375,5.640625 -11.21875,5.640625 -7.125,0 -11.203125,-5.640625 -4.078125,-5.640625 -4.078125,-15.546875 z"
               id="DejaVuSans-100"
               inkscape:connector-curvature="0"
               style="stroke-linecap:butt;stroke-linejoin:round" />
            <path
               d="M 9.421875,54.6875 H 18.40625 V 0 H 9.421875 Z m 0,21.296875 H 18.40625 V 64.59375 H 9.421875 Z"
               id="DejaVuSans-105"
               inkscape:connector-curvature="0"
               style="stroke-linecap:butt;stroke-linejoin:round" />
            <path
               d="M 18.3125,70.21875 V 54.6875 h 18.5 v -6.984375 h -18.5 v -29.6875 q 0,-6.6875 1.828125,-8.59375 1.828125,-1.90625 7.453125,-1.90625 H 36.8125 V 0 H 27.59375 Q 17.1875,0 13.234375,3.875 9.28125,7.765625 9.28125,18.015625 v 29.6875 H 2.6875 V 54.6875 h 6.59375 v 15.53125 z"
               id="DejaVuSans-116"
               inkscape:connector-curvature="0"
               style="stroke-linecap:butt;stroke-linejoin:round" />
            <path
               d="M 54.890625,33.015625 V 0 H 45.90625 v 32.71875 q 0,7.765625 -3.03125,11.609375 -3.03125,3.859375 -9.078125,3.859375 -7.28125,0 -11.484375,-4.640625 -4.203125,-4.625 -4.203125,-12.640625 V 0 h -9.03125 v 54.6875 h 9.03125 v -8.5 q 3.234375,4.9375 7.59375,7.375 4.375,2.4375 10.09375,2.4375 9.421875,0 14.25,-5.828125 4.84375,-5.828125 4.84375,-17.15625 z"
               id="DejaVuSans-110"
               inkscape:connector-curvature="0"
               style="stroke-linecap:butt;stroke-linejoin:round" />
            <path
               d="M 10.984375,1.515625 V 10.5 Q 14.703125,8.734375 18.5,7.8125 q 3.8125,-0.921875 7.484375,-0.921875 9.765625,0 14.90625,6.5625 5.15625,6.5625 5.890625,19.953125 -2.828125,-4.203125 -7.1875,-6.453125 -4.34375,-2.25 -9.609375,-2.25 -10.9375,0 -17.3125,6.609375 -6.375,6.625 -6.375,18.109375 0,11.21875 6.640625,18 6.640625,6.796875 17.671875,6.796875 12.65625,0 19.3125,-9.703125 6.671875,-9.6875 6.671875,-28.140625 0,-17.234375 -8.1875,-27.515625 -8.171875,-10.28125 -21.984375,-10.28125 -3.71875,0 -7.53125,0.734375 -3.796875,0.734375 -7.90625,2.203125 z m 19.625,30.90625 q 6.640625,0 10.515625,4.53125 3.890625,4.546875 3.890625,12.46875 0,7.859375 -3.890625,12.421875 -3.875,4.5625 -10.515625,4.5625 -6.640625,0 -10.515625,-4.5625 -3.875,-4.5625 -3.875,-12.421875 0,-7.921875 3.875,-12.46875 3.875,-4.53125 10.515625,-4.53125 z"
               id="DejaVuSans-57"
               inkscape:connector-curvature="0"
               style="stroke-linecap:butt;stroke-linejoin:round" />
            <path
               d="M 40.578125,39.3125 Q 47.65625,37.796875 51.625,33 q 3.984375,-4.78125 3.984375,-11.8125 0,-10.78125 -7.421875,-16.703125 -7.421875,-5.90625 -21.09375,-5.90625 -4.578125,0 -9.4375,0.90625 -4.859375,0.90625 -10.03125,2.71875 v 9.515625 q 4.09375,-2.390625 8.96875,-3.609375 4.890625,-1.21875 10.21875,-1.21875 9.265625,0 14.125,3.65625 4.859375,3.65625 4.859375,10.640625 0,6.453125 -4.515625,10.078125 -4.515625,3.640625 -12.5625,3.640625 h -8.5 v 8.109375 h 8.890625 q 7.265625,0 11.125,2.90625 3.859375,2.90625 3.859375,8.375 0,5.609375 -3.984375,8.609375 -3.96875,3.015625 -11.390625,3.015625 -4.0625,0 -8.703125,-0.890625 Q 15.375,64.15625 9.8125,62.3125 v 8.78125 q 5.625,1.5625 10.53125,2.34375 4.90625,0.78125 9.25,0.78125 11.234375,0 17.765625,-5.109375 6.546875,-5.09375 6.546875,-13.78125 0,-6.0625 -3.46875,-10.234375 -3.46875,-4.171875 -9.859375,-5.78125 z"
               id="DejaVuSans-51"
               inkscape:connector-curvature="0"
               style="stroke-linecap:butt;stroke-linejoin:round" />
            <path
               d="M 37.796875,64.3125 12.890625,25.390625 h 24.90625 z m -2.59375,8.59375 h 12.40625 V 25.390625 h 10.40625 V 17.1875 H 47.609375 V 0 h -9.8125 V 17.1875 H 4.890625 v 9.515625 z"
               id="DejaVuSans-52"
               inkscape:connector-curvature="0"
               style="stroke-linecap:butt;stroke-linejoin:round" />
            <path
               d="m 44.28125,53.078125 v -8.5 Q 40.484375,46.53125 36.375,47.5 q -4.09375,0.984375 -8.5,0.984375 -6.6875,0 -10.03125,-2.046875 Q 14.5,44.390625 14.5,40.28125 q 0,-3.125 2.390625,-4.90625 2.390625,-1.78125 9.625,-3.390625 l 3.078125,-0.6875 Q 39.15625,29.25 43.1875,25.515625 47.21875,21.78125 47.21875,15.09375 q 0,-7.625 -6.03125,-12.078125 -6.03125,-4.4375 -16.578125,-4.4375 -4.390625,0 -9.15625,0.859375 Q 10.6875,0.296875 5.421875,2 v 9.28125 q 4.984375,-2.59375 9.8125,-3.890625 4.828125,-1.28125 9.578125,-1.28125 6.34375,0 9.75,2.171875 3.421875,2.171875 3.421875,6.125 0,3.65625 -2.46875,5.609375 -2.453125,1.953125 -10.8125,3.765625 l -3.125,0.734375 q -8.34375,1.75 -12.0625,5.390625 -3.703125,3.640625 -3.703125,9.984375 0,7.71875 5.46875,11.90625 Q 16.75,56 26.8125,56 q 4.96875,0 9.359375,-0.734375 4.40625,-0.71875 8.109375,-2.1875 z"
               id="DejaVuSans-115"
               inkscape:connector-curvature="0"
               style="stroke-linecap:butt;stroke-linejoin:round" />
            <path
               d="m 34.28125,27.484375 q -10.890625,0 -15.09375,-2.484375 -4.203125,-2.484375 -4.203125,-8.5 0,-4.78125 3.15625,-7.59375 3.15625,-2.796875 8.5625,-2.796875 7.484375,0 12,5.296875 4.515625,5.296875 4.515625,14.078125 v 2 z m 17.921875,3.71875 V 0 H 43.21875 v 8.296875 q -3.078125,-4.96875 -7.671875,-7.34375 -4.59375,-2.375 -11.234375,-2.375 -8.390625,0 -13.359375,4.71875 Q 6,8.015625 6,15.921875 q 0,9.21875 6.171875,13.90625 6.1875,4.6875 18.4375,4.6875 H 43.21875 v 0.890625 q 0,6.203125 -4.078125,9.59375 -4.078125,3.390625 -11.453125,3.390625 -4.6875,0 -9.140625,-1.125 -4.4375,-1.125 -8.53125,-3.375 v 8.3125 q 4.921875,1.90625 9.5625,2.84375 Q 24.21875,56 28.609375,56 q 11.875,0 17.734375,-6.15625 5.859375,-6.140625 5.859375,-18.640625 z"
               id="DejaVuSans-97"
               inkscape:connector-curvature="0"
               style="stroke-linecap:butt;stroke-linejoin:round" />
          </defs>
          <g
             transform="matrix(0.15,0,0,-0.15,576.81331,904.13304)"
             id="g226"
             style="stroke-linecap:butt;stroke-linejoin:round">
            <use
               xlink:href="#DejaVuSans-80"
               id="use170"
               style="stroke-linecap:butt;stroke-linejoin:round"
               x="0"
               y="0"
               width="100%"
               height="100%" />
            <use
               x="60.287109"
               xlink:href="#DejaVuSans-114"
               id="use172"
               style="stroke-linecap:butt;stroke-linejoin:round"
               y="0"
               width="100%"
               height="100%" />
            <use
               x="101.36914"
               xlink:href="#DejaVuSans-101"
               id="use174"
               style="stroke-linecap:butt;stroke-linejoin:round"
               y="0"
               width="100%"
               height="100%" />
            <use
               x="162.89258"
               xlink:href="#DejaVuSans-100"
               id="use176"
               style="stroke-linecap:butt;stroke-linejoin:round"
               y="0"
               width="100%"
               height="100%" />
            <use
               x="226.36914"
               xlink:href="#DejaVuSans-105"
               id="use178"
               style="stroke-linecap:butt;stroke-linejoin:round"
               y="0"
               width="100%"
               height="100%" />
            <use
               x="254.15234"
               xlink:href="#DejaVuSans-99"
               id="use180"
               style="stroke-linecap:butt;stroke-linejoin:round"
               y="0"
               width="100%"
               height="100%" />
            <use
               x="309.13281"
               xlink:href="#DejaVuSans-116"
               id="use182"
               style="stroke-linecap:butt;stroke-linejoin:round"
               y="0"
               width="100%"
               height="100%" />
            <use
               x="348.3418"
               xlink:href="#DejaVuSans-105"
               id="use184"
               style="stroke-linecap:butt;stroke-linejoin:round"
               y="0"
               width="100%"
               height="100%" />
            <use
               x="376.125"
               xlink:href="#DejaVuSans-111"
               id="use186"
               style="stroke-linecap:butt;stroke-linejoin:round"
               y="0"
               width="100%"
               height="100%" />
            <use
               x="437.30664"
               xlink:href="#DejaVuSans-110"
               id="use188"
               style="stroke-linecap:butt;stroke-linejoin:round"
               y="0"
               width="100%"
               height="100%" />
            <use
               x="500.68555"
               xlink:href="#DejaVuSans-95"
               id="use190"
               style="stroke-linecap:butt;stroke-linejoin:round"
               y="0"
               width="100%"
               height="100%" />
            <use
               x="550.68555"
               xlink:href="#DejaVuSans-57"
               id="use192"
               style="stroke-linecap:butt;stroke-linejoin:round"
               y="0"
               width="100%"
               height="100%" />
            <use
               x="614.30859"
               xlink:href="#DejaVuSans-50"
               id="use194"
               style="stroke-linecap:butt;stroke-linejoin:round"
               y="0"
               width="100%"
               height="100%" />
            <use
               x="677.93164"
               xlink:href="#DejaVuSans-49"
               id="use196"
               style="stroke-linecap:butt;stroke-linejoin:round"
               y="0"
               width="100%"
               height="100%" />
            <use
               x="741.55469"
               xlink:href="#DejaVuSans-51"
               id="use198"
               style="stroke-linecap:butt;stroke-linejoin:round"
               y="0"
               width="100%"
               height="100%" />
            <use
               x="805.17773"
               xlink:href="#DejaVuSans-52"
               id="use200"
               style="stroke-linecap:butt;stroke-linejoin:round"
               y="0"
               width="100%"
               height="100%" />
            <use
               x="868.80078"
               xlink:href="#DejaVuSans-49"
               id="use202"
               style="stroke-linecap:butt;stroke-linejoin:round"
               y="0"
               width="100%"
               height="100%" />
            <use
               x="932.42383"
               xlink:href="#DejaVuSans-95"
               id="use204"
               style="stroke-linecap:butt;stroke-linejoin:round"
               y="0"
               width="100%"
               height="100%" />
            <use
               x="982.42383"
               xlink:href="#DejaVuSans-115"
               id="use206"
               style="stroke-linecap:butt;stroke-linejoin:round"
               y="0"
               width="100%"
               height="100%" />
            <use
               x="1034.5234"
               xlink:href="#DejaVuSans-97"
               id="use208"
               style="stroke-linecap:butt;stroke-linejoin:round"
               y="0"
               width="100%"
               height="100%" />
            <use
               x="1095.8027"
               xlink:href="#DejaVuSans-116"
               id="use210"
               style="stroke-linecap:butt;stroke-linejoin:round"
               y="0"
               width="100%"
               height="100%" />
            <use
               x="1135.0117"
               xlink:href="#DejaVuSans-117"
               id="use212"
               style="stroke-linecap:butt;stroke-linejoin:round"
               y="0"
               width="100%"
               height="100%" />
            <use
               x="1198.3906"
               xlink:href="#DejaVuSans-114"
               id="use214"
               style="stroke-linecap:butt;stroke-linejoin:round"
               y="0"
               width="100%"
               height="100%" />
            <use
               x="1239.5039"
               xlink:href="#DejaVuSans-97"
               id="use216"
               style="stroke-linecap:butt;stroke-linejoin:round"
               y="0"
               width="100%"
               height="100%" />
            <use
               x="1300.7832"
               xlink:href="#DejaVuSans-116"
               id="use218"
               style="stroke-linecap:butt;stroke-linejoin:round"
               y="0"
               width="100%"
               height="100%" />
            <use
               x="1339.9922"
               xlink:href="#DejaVuSans-105"
               id="use220"
               style="stroke-linecap:butt;stroke-linejoin:round"
               y="0"
               width="100%"
               height="100%" />
            <use
               x="1367.7754"
               xlink:href="#DejaVuSans-111"
               id="use222"
               style="stroke-linecap:butt;stroke-linejoin:round"
               y="0"
               width="100%"
               height="100%" />
            <use
               x="1428.957"
               xlink:href="#DejaVuSans-110"
               id="use224"
               style="stroke-linecap:butt;stroke-linejoin:round"
               y="0"
               width="100%"
               height="100%" />
          </g>
        </g>
      </g>
      <g
         id="text_5"
         transform="translate(-1053.4247,1216.4383)"
         style="stroke-linecap:butt;stroke-linejoin:round">
        <g
           clip-path="url(#p615c64d30a)"
           id="g253"
           style="stroke-linecap:butt;stroke-linejoin:round">
          <!-- molecule_3 -->
          <g
             transform="matrix(0.15,0,0,-0.15,1113.5959,340.2032)"
             id="g251"
             style="stroke-linecap:butt;stroke-linejoin:round">
            <use
               xlink:href="#DejaVuSans-109"
               id="use231"
               style="stroke-linecap:butt;stroke-linejoin:round"
               x="0"
               y="0"
               width="100%"
               height="100%" />
            <use
               x="97.412109"
               xlink:href="#DejaVuSans-111"
               id="use233"
               style="stroke-linecap:butt;stroke-linejoin:round"
               y="0"
               width="100%"
               height="100%" />
            <use
               x="158.59375"
               xlink:href="#DejaVuSans-108"
               id="use235"
               style="stroke-linecap:butt;stroke-linejoin:round"
               y="0"
               width="100%"
               height="100%" />
            <use
               x="186.37695"
               xlink:href="#DejaVuSans-101"
               id="use237"
               style="stroke-linecap:butt;stroke-linejoin:round"
               y="0"
               width="100%"
               height="100%" />
            <use
               x="247.90039"
               xlink:href="#DejaVuSans-99"
               id="use239"
               style="stroke-linecap:butt;stroke-linejoin:round"
               y="0"
               width="100%"
               height="100%" />
            <use
               x="302.88086"
               xlink:href="#DejaVuSans-117"
               id="use241"
               style="stroke-linecap:butt;stroke-linejoin:round"
               y="0"
               width="100%"
               height="100%" />
            <use
               x="366.25977"
               xlink:href="#DejaVuSans-108"
               id="use243"
               style="stroke-linecap:butt;stroke-linejoin:round"
               y="0"
               width="100%"
               height="100%" />
            <use
               x="394.04297"
               xlink:href="#DejaVuSans-101"
               id="use245"
               style="stroke-linecap:butt;stroke-linejoin:round"
               y="0"
               width="100%"
               height="100%" />
            <use
               x="455.56641"
               xlink:href="#DejaVuSans-95"
               id="use247"
               style="stroke-linecap:butt;stroke-linejoin:round"
               y="0"
               width="100%"
               height="100%" />
            <use
               x="505.56641"
               xlink:href="#DejaVuSans-51"
               id="use249"
               style="stroke-linecap:butt;stroke-linejoin:round"
               y="0"
               width="100%"
               height="100%" />
          </g>
        </g>
      </g>
      <g
         id="text_6"
         transform="translate(-1053.4247,1216.4383)"
         style="stroke-linecap:butt;stroke-linejoin:round">
        <g
           clip-path="url(#p615c64d30a)"
           id="g278"
           style="stroke-linecap:butt;stroke-linejoin:round">
          <!-- molecule_4 -->
          <g
             transform="matrix(0.15,0,0,-0.15,1456.256,419.52913)"
             id="g276"
             style="stroke-linecap:butt;stroke-linejoin:round">
            <use
               xlink:href="#DejaVuSans-109"
               id="use256"
               style="stroke-linecap:butt;stroke-linejoin:round"
               x="0"
               y="0"
               width="100%"
               height="100%" />
            <use
               x="97.412109"
               xlink:href="#DejaVuSans-111"
               id="use258"
               style="stroke-linecap:butt;stroke-linejoin:round"
               y="0"
               width="100%"
               height="100%" />
            <use
               x="158.59375"
               xlink:href="#DejaVuSans-108"
               id="use260"
               style="stroke-linecap:butt;stroke-linejoin:round"
               y="0"
               width="100%"
               height="100%" />
            <use
               x="186.37695"
               xlink:href="#DejaVuSans-101"
               id="use262"
               style="stroke-linecap:butt;stroke-linejoin:round"
               y="0"
               width="100%"
               height="100%" />
            <use
               x="247.90039"
               xlink:href="#DejaVuSans-99"
               id="use264"
               style="stroke-linecap:butt;stroke-linejoin:round"
               y="0"
               width="100%"
               height="100%" />
            <use
               x="302.88086"
               xlink:href="#DejaVuSans-117"
               id="use266"
               style="stroke-linecap:butt;stroke-linejoin:round"
               y="0"
               width="100%"
               height="100%" />
            <use
               x="366.25977"
               xlink:href="#DejaVuSans-108"
               id="use268"
               style="stroke-linecap:butt;stroke-linejoin:round"
               y="0"
               width="100%"
               height="100%" />
            <use
               x="394.04297"
               xlink:href="#DejaVuSans-101"
               id="use270"
               style="stroke-linecap:butt;stroke-linejoin:round"
               y="0"
               width="100%"
               height="100%" />
            <use
               x="455.56641"
               xlink:href="#DejaVuSans-95"
               id="use272"
               style="stroke-linecap:butt;stroke-linejoin:round"
               y="0"
               width="100%"
               height="100%" />
            <use
               x="505.56641"
               xlink:href="#DejaVuSans-52"
               id="use274"
               style="stroke-linecap:butt;stroke-linejoin:round"
               y="0"
               width="100%"
               height="100%" />
          </g>
        </g>
      </g>
    </g>
  </g>
  <defs
     id="defs286">
    <clipPath
       id="p615c64d30a"
       style="stroke-linecap:butt;stroke-linejoin:round">
      <rect
         height="1386"
         width="1395"
         x="225"
         y="216"
         id="rect283"
         style="stroke-linecap:butt;stroke-linejoin:round" />
    </clipPath>
  </defs>
</svg>
